<svg id="_004-facebook-app-logo" data-name="004-facebook-app-logo" xmlns="http://www.w3.org/2000/svg" width="40.257" height="40.257" viewBox="0 0 40.257 40.257">
  <defs>
    <style>
      .cls-1 {
        fill: #aea9bf;
      }
    </style>
  </defs>
  <path id="Path_7" data-name="Path 7" class="cls-1" d="M38.033,0H2.222A2.222,2.222,0,0,0,0,2.223V38.034a2.223,2.223,0,0,0,2.222,2.223H21.5V24.668H16.256V18.591H21.5V14.111c0-5.2,3.174-8.031,7.813-8.031A43.511,43.511,0,0,1,34,6.318v5.434H30.784c-2.522,0-3.009,1.2-3.009,2.958v3.878h6.017l-.787,6.076H27.775v15.59H38.033a2.224,2.224,0,0,0,2.224-2.221V2.222A2.222,2.222,0,0,0,38.033,0Z" transform="translate(0 -0.001)"/>
</svg>
