<svg id="_002-instagram" data-name="002-instagram" xmlns="http://www.w3.org/2000/svg" width="43.633" height="43.642" viewBox="0 0 43.633 43.642">
  <defs>
    <style>
      .cls-1 {
        fill: #aea9bf;
      }
    </style>
  </defs>
  <path id="Path_3" data-name="Path 3" class="cls-1" d="M43.971,12.831a15.947,15.947,0,0,0-1.014-5.294,11.179,11.179,0,0,0-6.386-6.385A15.988,15.988,0,0,0,31.277.137C28.941.026,28.2,0,22.274,0s-6.667.026-8.994.128A15.951,15.951,0,0,0,7.985,1.142,10.648,10.648,0,0,0,4.114,3.666,10.745,10.745,0,0,0,1.6,7.528,15.99,15.99,0,0,0,.585,12.822c-.111,2.336-.137,3.078-.137,9s.026,6.667.128,8.994a15.946,15.946,0,0,0,1.015,5.294A11.178,11.178,0,0,0,7.977,42.5a15.99,15.99,0,0,0,5.294,1.014c2.327.1,3.069.128,8.994.128s6.667-.025,8.994-.128A15.943,15.943,0,0,0,36.554,42.5a11.163,11.163,0,0,0,6.386-6.385,16,16,0,0,0,1.014-5.294c.1-2.328.128-3.069.128-8.994s-.009-6.667-.111-8.994Zm-3.93,17.818a11.962,11.962,0,0,1-.75,4.05,7.239,7.239,0,0,1-4.143,4.143,12,12,0,0,1-4.05.75c-2.3.1-2.992.128-8.815.128s-6.522-.025-8.815-.128a11.956,11.956,0,0,1-4.05-.75,6.715,6.715,0,0,1-2.506-1.628,6.785,6.785,0,0,1-1.628-2.506,12.006,12.006,0,0,1-.75-4.05c-.1-2.3-.128-2.993-.128-8.815s.025-6.522.128-8.815a11.956,11.956,0,0,1,.75-4.05A6.633,6.633,0,0,1,6.92,6.471,6.775,6.775,0,0,1,9.426,4.843a12.012,12.012,0,0,1,4.05-.75c2.3-.1,2.993-.128,8.815-.128s6.522.026,8.815.128a11.962,11.962,0,0,1,4.05.75,6.711,6.711,0,0,1,2.506,1.628,6.784,6.784,0,0,1,1.628,2.507,12.011,12.011,0,0,1,.75,4.05c.1,2.3.128,2.992.128,8.815s-.026,6.5-.128,8.807Zm0,0" transform="translate(-0.449 0)"/>
  <path id="Path_4" data-name="Path 4" class="cls-1" d="M136.16,124.5a11.211,11.211,0,1,0,11.211,11.211A11.214,11.214,0,0,0,136.16,124.5Zm0,18.483a7.272,7.272,0,1,1,7.272-7.272,7.273,7.273,0,0,1-7.272,7.272Zm0,0" transform="translate(-114.335 -113.886)"/>
  <path id="Path_5" data-name="Path 5" class="cls-1" d="M367.685,91.219a2.617,2.617,0,1,1-2.618-2.617A2.618,2.618,0,0,1,367.685,91.219Zm0,0" transform="translate(-331.588 -81.048)"/>
</svg>
