<svg id="_005-twitter" data-name="005-twitter" xmlns="http://www.w3.org/2000/svg" width="43.65" height="35.466" viewBox="0 0 43.65 35.466">
  <defs>
    <style>
      .cls-1 {
        fill: #aea9bf;
      }
    </style>
  </defs>
  <g id="Group_1" data-name="Group 1" transform="translate(0 0)">
    <path id="Path_8" data-name="Path 8" class="cls-1" d="M43.65,52.2a18.657,18.657,0,0,1-5.156,1.413,8.9,8.9,0,0,0,3.937-4.946,17.883,17.883,0,0,1-5.675,2.166,8.948,8.948,0,0,0-15.479,6.119,9.214,9.214,0,0,0,.207,2.041,25.329,25.329,0,0,1-18.445-9.36,8.951,8.951,0,0,0,2.75,11.96,8.837,8.837,0,0,1-4.043-1.1v.1a8.99,8.99,0,0,0,7.17,8.793,8.931,8.931,0,0,1-2.346.295,7.912,7.912,0,0,1-1.694-.153,9.034,9.034,0,0,0,8.362,6.234,17.981,17.981,0,0,1-11.1,3.817A16.761,16.761,0,0,1,0,79.45a25.193,25.193,0,0,0,13.728,4.016C30.2,83.466,39.2,69.825,39.2,58c0-.4-.014-.778-.033-1.157A17.852,17.852,0,0,0,43.65,52.2Z" transform="translate(0 -48)"/>
  </g>
</svg>
