<svg id="_003-linkedin-logo" data-name="003-linkedin-logo" xmlns="http://www.w3.org/2000/svg" width="43.48" height="43.48" viewBox="0 0 43.48 43.48">
  <defs>
    <style>
      .cls-1 {
        fill: #aea9bf;
      }
    </style>
  </defs>
  <g id="post-linkedin">
    <path id="Path_6" data-name="Path 6" class="cls-1" d="M39.132,0H4.348A4.361,4.361,0,0,0,0,4.348V39.132A4.361,4.361,0,0,0,4.348,43.48H39.132a4.361,4.361,0,0,0,4.348-4.348V4.348A4.361,4.361,0,0,0,39.132,0ZM13.044,36.958H6.522V17.392h6.522ZM9.783,13.7A3.913,3.913,0,1,1,13.7,9.783,3.9,3.9,0,0,1,9.783,13.7ZM36.958,36.958H30.436V25.436a3.261,3.261,0,0,0-6.522,0V36.958H17.392V17.392h6.522V20a7.022,7.022,0,0,1,5.435-3.044,7.7,7.7,0,0,1,7.609,7.609Z"/>
  </g>
</svg>
