<svg xmlns="http://www.w3.org/2000/svg" width="543.428" height="145.895" viewBox="0 0 543.428 145.895">
  <defs>
    <style>
      .cls-1, .cls-2, .cls-3, .cls-4, .cls-5 {
        fill: none;
        stroke: #fcfcfc;
        stroke-miterlimit: 10;
      }

      .cls-1 {
        stroke-width: 0.5px;
      }

      .cls-2 {
        stroke-width: 5px;
      }

      .cls-3 {
        stroke-width: 3px;
        font-size: 47px;
      }

      .cls-3, .cls-4 {
        font-family: PerpetuaTitlingMT-Light, Perpetua Titling MT;
        font-weight: 300;
      }

      .cls-4 {
        font-size: 29px;
      }
    </style>
  </defs>
  <g id="heart_beat_logo" data-name="heart beat logo" transform="translate(-1.864 -214.7)">
    <path id="Path_22" data-name="Path 22" class="cls-1" d="M164.2,277.9" transform="translate(60.845 24.059)"/>
    <path id="Path_23" data-name="Path 23" class="cls-2" d="M75.1,292.374c-135.03,2.485-42.939.138,0,0,2.761-8.008,12.426-43.491,14.083-49.842,2.623-12.012,5.247,25.819,6.765,34.1,1.657,18.777,5.385,36.864,7.456,60.612,9.527-40.316,9.389-42.249,12.7-54.813-.69,2.347-.276,2.347,1.519-11.045a14.668,14.668,0,0,1,.414-1.933c.552-2.623,3.452,10.355,3.59,10.355A125,125,0,0,0,127.293,295c4,.138,6.351,0,9.389,0,0,0,1.795,2.071,7.732,15.878l9.112-63.925,9.112,53.018,5.937-16.706,4.97,20.986,7.87-.414,1.795-7.318c2.761-17.949,6.351-36.036,9.112-53.984.414-2.623.828-5.109,1.243-7.732,1.243,10.631,2.485,21.262,3.59,32.032a182.248,182.248,0,0,0,3.59,20.158,55.992,55.992,0,0,0,2.485,10.217c1.1,3.59,3.728,9.527,4.97,13.807l11.874-44.734c.966,4.694,5.385,26.647,6.765,31.479a136.861,136.861,0,0,0,14.635-.414c.414-5.661,4.28-32.446,4.694-31.341a164.663,164.663,0,0,1,5.937,20.572c.966,4.97,1.657,8.146,2.209,10.079,1.933.138,7.456.138,10.493.138l.552-1.519,2.071-7.318c2.071,10.079,4.694,22.643,7.18,32.584,1.381-6.765,3.59-16.292,6.075-24.162,44.182,0,203.512,1.243,247.279.552" transform="translate(0 7.652)"/>
    <g id="Group_10" data-name="Group 10" transform="translate(302.779 244.003)">
      <text id="ASD" class="cls-3" transform="translate(0 45)"><tspan x="0" y="0">ASD</tspan></text>
    </g>
    <text id="Medical_Center" data-name="Medical Center" class="cls-4" transform="translate(295.292 337.783)"><tspan x="0" y="0">Medical Center</tspan></text>
    <path id="Path_24" data-name="Path 24" class="cls-5" d="M168,214.7" transform="translate(62.292)"/>
    <path id="Path_25" data-name="Path 25" class="cls-5" d="M168,214.7" transform="translate(62.292)"/>
    <path id="Path_26" data-name="Path 26" class="cls-5" d="M168,214.7" transform="translate(62.292)"/>
  </g>
</svg>
