<svg xmlns="http://www.w3.org/2000/svg" width="496.642" height="140.998" viewBox="0 0 496.642 140.998">
  <defs>
    <style>
      .cls-1, .cls-2 {
        fill: #ed1c24;
        stroke: #6d69b0;
      }

      .cls-1, .cls-2, .cls-3, .cls-4, .cls-5 {
        stroke-miterlimit: 10;
      }

      .cls-1 {
        stroke-width: 0.5px;
      }

      .cls-3, .cls-4, .cls-5 {
        fill: none;
      }

      .cls-3 {
        stroke: #cbced1;
        stroke-width: 5px;
      }

      .cls-4, .cls-5 {
        stroke: #a087cb;
        font-family: PerpetuaTitlingMT-Light, Perpetua Titling MT;
        font-weight: 300;
      }

      .cls-4 {
        stroke-width: 4px;
        font-size: 39px;
        letter-spacing: 0.255em;
      }

      .cls-5 {
        stroke-width: 3px;
        font-size: 26px;
      }

      .cls-6 {
        fill: #c82127;
      }
    </style>
  </defs>
  <g id="heart_beat_logo" data-name="heart beat logo" transform="translate(92.536 -214.7)">
    <path id="Path_32" data-name="Path 32" class="cls-1" d="M164.2,277.9"/>
    <path id="Path_34" data-name="Path 34" class="cls-2" d="M168,214.7"/>
    <path id="Path_35" data-name="Path 35" class="cls-2" d="M168,214.7"/>
    <path id="Path_36" data-name="Path 36" class="cls-2" d="M168,214.7"/>
    <path id="Path_33" data-name="Path 33" class="cls-3" d="M56.2,277.5c-97.8,1.8-31.1.1,0,0,2-5.8,9-31.5,10.2-36.1,1.9-8.7,3.8,18.7,4.9,24.7,1.2,13.6,3.9,26.7,5.4,43.9,6.9-29.2,6.8-30.6,9.2-39.7-.5,1.7-1.989,7.632.28-2.333.1-.8,1.479-6.653,1.579-7.153.4-1.9,2.042,7.587,2.142,7.587a90.532,90.532,0,0,0,4.1,11c2.9.1,4.6,0,6.8,0,0,0,1.3,1.5,5.6,11.5l6.6-46.3,6,40.9,5.6-.2,3.4-.2,5.5-.1,1.1-4.5c2-13,4.6-26.1,6.6-39.1.3-1.9.6-3.7.9-5.6.9,7.7,1.8,15.4,2.6,23.2a132,132,0,0,0,2.6,14.6,40.555,40.555,0,0,0,1.8,7.4c.8,2.6,2.7,6.9,3.6,10l8.6-32.4c.7,3.4,3.9,19.3,4.9,22.8a65.914,65.914,0,0,0,8.7-.2c1.5-3.9,6.5-18,5.9-16.5-2.5,6.9,1-2.4,1-2.4,4.3,18.2,4.2,18.4,4.3,18.2,1.4.1,5.4.1,7.6.1l.4-1.1,1.5-5.3c1.5,7.3,3.4,16.4,5.2,23.6,1-4.9,2.6-11.8,4.4-17.5,11.946,0,88.711.774,124.98,1.1s13.574.136,20.1.2c32.476.327,57.681.59,57.681.59s80.374.624,91.145.409" transform="translate(-95 30)"/>
    <g id="Group_19" data-name="Group 19" transform="translate(-83 28)">
      <text id="ASD" class="cls-4" transform="translate(220.502 271.924)"><tspan x="0" y="0">ASD</tspan></text>
    </g>
    <text id="Medical" class="cls-5" transform="translate(128.717 340.403)"><tspan x="0" y="0">Medical</tspan></text>
    <g id="Group_20" data-name="Group 20" transform="translate(-110.662 5.524)">
      <path id="Path_37" data-name="Path 37" class="cls-6" d="M352.6,308.585V303.4l52.29.152v5.185Z" transform="translate(0 0)"/>
    </g>
    <rect id="Rectangle_10" data-name="Rectangle 10" class="cls-6" width="5.12" height="49.84" transform="translate(266.6 286.4)"/>
    <text id="Center" class="cls-5" transform="translate(296.681 340.403)"><tspan x="0" y="0">Center</tspan></text>
  </g>
</svg>
