<?xml version="1.0" encoding="utf-8"?>
<!-- Generator: Adobe Illustrator 24.2.3, SVG Export Plug-In . SVG Version: 6.00 Build 0)  -->
<svg version="1.1" id="Layer_1" xmlns="http://www.w3.org/2000/svg" xmlns:xlink="http://www.w3.org/1999/xlink" x="0px" y="0px"
	 viewBox="0 0 6511.7 1593.2" style="enable-background:new 0 0 6511.7 1593.2;" xml:space="preserve">
<style type="text/css">
	.st0{fill:#ED1C24;stroke:#6D69B0;stroke-width:0.25;stroke-miterlimit:10;}
	.st1{fill:none;stroke:#CBCED1;stroke-width:34;stroke-miterlimit:10;}
	.st2{fill:#A087CB;stroke:#A087CB;stroke-width:0.75;stroke-miterlimit:10;}
	.st3{font-family:'PerpetuaTitlingMT-Bold';}
	.st4{font-size:449.0804px;}
	.st5{letter-spacing:143;}
	.st6{fill:#C82127;}
</style>
<path id="Path_32" class="st0" d="M2601.3-172.3"/>
<path id="Path_34" class="st0" d="M776.6-496.7"/>
<path id="Path_35" class="st0" d="M776.6-496.7"/>
<path id="Path_36" class="st0" d="M776.6-496.7"/>
<path id="Path_33_1_" class="st1" d="M392.5,763.1C73.7,763.8,73.7,763.8,392.5,763.1c20.9-70,92.4-382.1,105-438
	c19.4-105.8,38.7,226.5,50.7,299.5c12.7,164.6,40.2,324,55.1,531.9c69.3-353.8,67-358.3,89.4-470l16.4-108c0.7-6,1.5-11.2,3-17.1
	c4.5-23.1,25.3,90.9,26.8,90.9c11.9,45.4,25.3,90.1,42.5,133.3c29.8,1.5,46.9,0,70,0c0,0,13.4,17.9,57.4,139.3l67.8-561.7
	l61.2,490.9l0,0l149.6-0.8l0,0l11.2-54.4c20.9-157.9,46.9-316.6,67.8-473.8c3-23.1,6-44.7,8.9-67.8c8.9,93.1,18.6,187,26.8,281.6
	c6,59.6,14.9,118.4,26.8,177.3c3.7,30.5,9.7,60.3,18.6,89.4l30.6,122.1l95.3-393.3l50.7,276.4l88.2,1.6l57.3-187.8l14.6-45.5
	c43.9,220.5,43.2,222.7,43.9,220.5c14.2,1.5,55.1,1.5,78.2,1.5l4.5-13.4l15.6-64.1c15.6,88.6,10.2,206.3,28.9,293.4l72.3-218.4
	l2540.6,2.9l2002.6,21.4L5097,808.4l0,0"/>
<g id="Group_19" transform="translate(-83 28)">
	<g>
		<g>
			<text transform="matrix(0.93 0 0 1 2175.3757 678.8602)" class="st2 st3 st4 st5">DAS</text>
		</g>
	</g>
</g>
<g>
	<g>
		<text transform="matrix(0.93 0 0 1 3504.9099 706.8602)" class="st2 st3 st4 st5">Medical</text>
	</g>
</g>
<g id="Group_20" transform="translate(-110.662 5.524)">
	<path id="Path_37" class="st6" d="M3243.1,812.9l-1.2-44.4l342,0.6l2.9,44.8L3243.1,812.9z"/>
</g>
<rect id="Rectangle_10" x="3286.1" y="625.7" class="st6" width="45.4" height="344.9"/>
<g>
	<g>
		<text transform="matrix(0.93 0 0 1 2625.2019 1282.9906)" class="st2 st3 st4 st5">Center</text>
	</g>
</g>
</svg>
