<?xml version="1.0" encoding="utf-8"?>
<!-- Generator: Adobe Illustrator 24.2.3, SVG Export Plug-In . SVG Version: 6.00 Build 0)  -->
<svg version="1.1" id="Layer_1" xmlns="http://www.w3.org/2000/svg" xmlns:xlink="http://www.w3.org/1999/xlink" x="0px" y="0px"
	 viewBox="0 0 595.3 841.9" style="enable-background:new 0 0 595.3 841.9;" xml:space="preserve">
<style type="text/css">
	.st0{fill:#ED1C24;stroke:#6D69B0;stroke-width:0.5;stroke-miterlimit:10;}
	.st1{fill:#FFFFFF;stroke:#6D69B0;stroke-width:5;stroke-miterlimit:10;}
	.st2{fill:none;stroke:#6D69B0;stroke-width:4;stroke-miterlimit:10;}
	.st3{font-family:'PerpetuaTitlingMT-Light';}
	.st4{font-size:39px;}
	.st5{letter-spacing:10;}
	.st6{fill:none;stroke:#6D69B0;stroke-width:3;stroke-miterlimit:10;}
	.st7{font-size:26px;}
	.st8{letter-spacing:2;}
	.st9{fill:#ED1C24;stroke:#6D69B0;stroke-miterlimit:10;}
	.st10{fill:#C82127;}
</style>
<path class="st0" d="M164.2,277.9"/>
<path class="st1" d="M56.2,277.5C-41.6,279.3,25.1,277.6,56.2,277.5c2-5.8,9-31.5,10.2-36.1c1.9-8.7,3.8,18.7,4.9,24.7
	c1.2,13.6,3.9,26.7,5.4,43.9c6.9-29.2,6.8-30.6,9.2-39.7c-0.5,1.7-0.2,1.7,1.1-8c0.1-0.8,0.2-0.9,0.3-1.4c0.4-1.9,2.5,7.5,2.6,7.5
	c1.5,5.3,4.1,11,4.1,11c2.9,0.1,4.6,0,6.8,0c0,0,1.3,1.5,5.6,11.5l6.6-46.3l6,40.9l5.6-0.2l3.4-0.2l5.5-0.1l1.1-4.5
	c2-13,4.6-26.1,6.6-39.1c0.3-1.9,0.6-3.7,0.9-5.6c0.9,7.7,1.8,15.4,2.6,23.2c1,7.2,1,7.2,2.6,14.6c0.4,2.2,0.4,3,1.8,7.4
	c0.8,2.6,2.7,6.9,3.6,10l8.6-32.4c0.7,3.4,3.9,19.3,4.9,22.8c4.4,0,3.5,0.2,8.7-0.2c1.5-3.9,6.5-18,5.9-16.5c-2.5,6.9,1-2.4,1-2.4
	c4.3,18.2,4.2,18.4,4.3,18.2c1.4,0.1,5.4,0.1,7.6,0.1l0.4-1.1l1.5-5.3c1.5,7.3,3.4,16.4,5.2,23.6c1-4.9,2.6-11.8,4.4-17.5
	c33.7,0,263.9,2.9,293.9,2.3"/>
<g>
	<text transform="matrix(1 0 0 1 220.5016 271.9236)" class="st2 st3 st4 st5">ASD</text>
</g>
<text transform="matrix(1 0 0 1 213.7171 310.403)" class="st6 st3 st7 st8">Medical</text>
<path class="st9" d="M168,214.7"/>
<path class="st9" d="M168,214.7"/>
<path class="st9" d="M168,214.7"/>
<g>
	<polygon class="st10" points="353.4,285.3 353.4,278.5 390.4,278.8 390.4,285.5 	"/>
</g>
<rect x="368.4" y="263.5" class="st10" width="7" height="37"/>
<text transform="matrix(1 0 0 1 395.6811 310.4026)" class="st6 st3 st7 st8">Center</text>
</svg>
