<svg xmlns="http://www.w3.org/2000/svg" width="1413.636" height="646.91" viewBox="0 0 1413.636 646.91">
  <defs>
    <style>
      .cls-1 {
        fill: #e71515;
        stroke: #707070;
      }
    </style>
  </defs>
  <path id="Path_39" data-name="Path 39" class="cls-1" d="M5880,0V320.606c0,14.979,35.887,61.005,35.887,61.005s27.128,32.772,54.62,58.99,23.81,25.334,55.348,45.881c22.45,14.626,40.763,24.653,40.763,24.653s3.905,2.754,5.846,4.478C6101.9,537.956,6153.8,561.372,6208,579.7c56.7,19.174,57.272,21.12,149.762,42.239,32.422,12.351,109.6,16.022,181.7,21.848,71.37,5.826,121.438-1.457,164.936-7.387,23.4.755,52.445-4.026,81.036-9.363a999.349,999.349,0,0,0,118.708-29.859c35.724-11.382,71.006-25.489,95.039-34.957,9.468-5.826,14.305-6.808,22.576-10.924,14.583-7.257,28.242-11.691,41.242-19.663,27.978-17.158,57.392-34.962,79-50.25,9.041-6.4,12.367-12.594,20.8-17.784,27.331-16.819,61.792-57.01,87.088-92.913,8.356-11.86,22.576-31.315,22.576-31.315s3.591-12.3,7.136-16.572c29.2-35.2,0-322.8,0-322.8Z" transform="translate(-5879.5 0.5)"/>
</svg>
